PathFileType	4	(X/Y/Z)	SUBJ26_3_walk_RCNL2025.trc
DataRate	CameraRate	NumFrames	NumMarkers	Units	OrigDataRate	OrigDataStartFrame	OrigNumFrames
100	100	13	25	mm	100	285	379
Frame#	Time	R_Shoulder			L_Shoulder			C7			J_Notch			R_Elbow			L_Elbow			R_Wrist			L_Wrist			R_Asis			L_Asis			Sacral			Thoracic			Sternum			R_Thigh_Lateral			R_Knee_Lateral			R_Shank_Lateral			R_Ankle_Lateral			R_Heel			R_Toe			L_Thigh_Lateral			L_Knee_Lateral			L_Shank_Lateral			L_Ankle_Lateral			L_Heel			L_Toe		
		X1	Y1	Z1	X2	Y2	Z2	X3	Y3	Z3	X4	Y4	Z4	X5	Y5	Z5	X6	Y6	Z6	X7	Y7	Z7	X8	Y8	Z8	X9	Y9	Z9	X10	Y10	Z10	X11	Y11	Z11	X12	Y12	Z12	X13	Y13	Z13	X14	Y14	Z14	X15	Y15	Z15	X16	Y16	Z16	X17	Y17	Z17	X18	Y18	Z18	X19	Y19	Z19	X20	Y20	Z20	X21	Y21	Z21	X22	Y22	Z22	X23	Y23	Z23	X24	Y24	Z24	X25	Y25	Z25
285	2.84000000	1065.981934	1308.849731	374.783508	1056.172485	1322.630981	43.716209	977.096802	1377.113770	221.572800	1123.224609	1281.745239	202.248444	983.839783	993.175903	466.292480	1027.790405	1006.319580	-71.725845	1063.346375	752.619781	457.063141	1172.094543	805.341705	-78.617517	1118.808472	919.036682	319.231415	1065.684448	900.244507	20.751959	890.463379	917.440430	210.777283	907.256592	1031.152344	198.749374	1171.770264	1020.668396	193.790878	1082.904663	580.323120	365.310974	1130.431030	438.406067	294.222900	1119.396729	287.352509	327.831573	1111.175537	54.167656	246.922134	1055.903442	42.600662	187.954163	1230.744629	47.510056	217.457397	1007.988708	589.446716	-25.007515	1028.711670	432.287720	37.249088	901.416016	321.737549	-32.587734	748.288452	178.696838	56.527988	697.440918	214.690384	108.916824	804.809448	76.527946	105.007973
286	2.85000000	1078.798828	1310.742920	375.274506	1067.359863	1324.615356	44.012836	989.401550	1379.225098	222.417877	1135.178711	1283.523682	202.489136	998.686279	995.026733	467.760254	1035.656128	1007.948425	-70.581841	1081.363159	755.602448	457.548035	1176.144409	804.221252	-77.825727	1130.789917	920.110535	319.495331	1075.934204	903.126160	20.613529	902.044739	919.832764	212.694412	919.008545	1033.322266	200.065613	1183.142700	1022.703064	193.942902	1088.536621	581.400574	365.264832	1133.507324	438.686462	293.958710	1120.817749	287.503265	327.790985	1111.055908	54.065849	247.044037	1055.740601	42.612625	188.106293	1230.637573	47.445572	217.433716	1026.131470	591.467651	-24.415180	1053.142456	435.195709	36.876675	927.972107	322.042572	-32.386032	777.976929	175.836105	56.911968	726.035339	208.904922	110.469368	839.821838	76.114136	101.879074
287	2.86000000	1091.542725	1312.580078	375.737732	1078.440552	1326.586792	44.249489	1001.629944	1381.247437	223.243408	1147.069946	1285.219604	202.701126	1013.515503	996.863586	469.241150	1043.321045	1009.589355	-69.476807	1099.394470	758.641235	457.984085	1179.869446	803.150513	-76.981688	1142.638672	921.092773	319.765198	1086.353394	906.300354	20.689310	913.545959	922.164673	214.354462	930.722717	1035.422363	201.342361	1194.435791	1024.836060	194.110367	1094.670410	582.589905	365.359741	1136.458862	439.036560	293.733398	1122.221191	287.632172	327.866058	1110.929810	53.944775	247.181824	1055.560669	42.632683	188.292084	1230.525269	47.363899	217.443527	1044.479736	593.587952	-23.854467	1077.238281	438.243896	36.798576	954.704956	321.944702	-32.033714	808.765015	171.759293	57.414314	755.616333	201.698532	111.949692	876.124512	75.137497	99.155678
288	2.87000000	1104.222534	1314.337891	376.182343	1089.443115	1328.517212	44.448849	1013.794739	1383.137085	224.062149	1158.911987	1286.804565	202.893112	1028.320190	998.655457	470.730530	1050.786133	1011.222900	-68.414848	1117.436401	761.707825	458.372559	1183.306946	802.138855	-76.087593	1154.343628	922.036194	320.072693	1097.015015	909.606628	21.031231	924.970703	924.368896	215.667236	942.401550	1037.409546	202.539978	1205.673096	1026.989258	194.274460	1101.287109	583.852051	365.616150	1139.243896	439.404968	293.584686	1123.532471	287.756683	328.047302	1110.788940	53.800884	247.325302	1055.366699	42.665710	188.503052	1230.409058	47.276123	217.487137	1062.994263	595.756470	-23.349667	1100.929810	441.339203	37.001469	981.524658	321.508453	-31.582573	840.652771	166.643707	57.936478	786.189392	193.247192	113.282639	913.507263	73.692284	96.855247
289	2.88000000	1116.847656	1315.985352	376.613739	1100.386597	1330.370117	44.627823	1025.912354	1384.852539	224.886459	1170.715942	1288.246338	203.066055	1043.091675	1000.363708	472.226685	1058.050659	1012.820251	-67.398254	1135.484009	764.766388	458.717712	1186.495605	801.182159	-75.147957	1165.894531	922.968140	320.450592	1107.971924	912.875244	21.661695	936.323181	926.378357	216.573837	954.044128	1039.237305	203.627884	1216.883667	1029.073608	194.419327	1108.289185	585.141785	366.039490	1141.831055	439.759094	293.519348	1124.675659	287.895660	328.304474	1110.628784	53.642845	247.471405	1055.163574	42.715843	188.723236	1230.292480	47.190483	217.558441	1081.618530	597.926880	-22.906607	1124.166626	444.407166	37.465630	1008.371887	320.766083	-31.056702	873.624878	160.668365	58.407753	817.768860	183.733063	114.434456	951.798767	71.872528	94.966599
290	2.89000000	1129.427246	1317.486694	377.033234	1111.282593	1332.102661	44.797417	1037.999268	1386.359009	225.726471	1182.491455	1289.513550	203.215271	1057.821533	1001.944702	473.730072	1065.114990	1014.346069	-66.423599	1153.529480	767.775055	459.027237	1189.473999	800.263855	-74.169247	1177.283447	923.888733	320.930603	1119.253662	915.941528	22.572851	947.611572	928.132996	217.050919	965.647766	1040.859497	204.584854	1228.098389	1031.002075	194.536865	1115.539307	586.400146	366.611969	1144.196533	440.079803	293.522614	1125.594116	288.060699	328.596771	1110.453369	53.489479	247.619263	1054.955444	42.784100	188.934357	1230.180542	47.111382	217.647064	1100.284790	600.058044	-22.516239	1146.912109	447.387421	38.168175	1035.217896	319.712891	-30.454811	907.624329	153.979996	58.807480	850.371643	173.335968	115.405716	990.862000	69.770576	93.457947
291	2.90000000	1141.969238	1318.803711	377.438782	1122.141235	1333.670288	44.962009	1050.068359	1387.628906	226.583435	1194.247192	1290.578369	203.333298	1072.503418	1003.353516	475.240692	1071.984985	1015.761902	-65.481415	1171.561157	770.687378	459.311905	1192.279480	799.357025	-73.159840	1188.507568	924.772095	321.539551	1130.866211	918.657959	23.728594	958.849731	929.586792	217.111664	977.208557	1042.236084	205.398270	1239.346191	1032.699585	194.627090	1122.912720	587.553772	367.292786	1146.327026	440.354767	293.570587	1126.265015	288.253784	328.884369	1110.273438	53.358185	247.762802	1054.744873	42.868797	189.118637	1230.078735	47.039593	217.740891	1118.921509	602.115540	-22.160210	1169.136841	450.228424	39.086945	1062.053345	318.326691	-29.757376	942.561951	146.696640	59.161766	884.011963	162.229080	116.220848	1030.588501	67.478882	92.285713
292	2.91000000	1154.479980	1319.898804	377.825958	1132.975098	1335.030640	45.118961	1062.126831	1388.640625	227.446060	1205.989868	1291.416992	203.413452	1087.135620	1004.549377	476.756897	1078.672729	1017.028625	-64.558365	1189.563721	773.455048	459.585526	1194.948303	798.428192	-72.129959	1199.570923	925.571899	322.294556	1142.793335	920.904602	25.070211	970.054565	930.713257	216.801315	988.722595	1043.336792	206.062622	1250.652344	1034.110474	194.695099	1130.330200	588.528870	368.026245	1148.229736	440.577179	293.638458	1126.705566	288.471130	329.138824	1110.099609	53.258091	247.892456	1054.533936	42.966362	189.262207	1229.991455	46.972652	217.827805	1137.459351	604.071533	-21.812149	1190.812500	452.883698	40.202553	1088.871216	316.592926	-28.934851	978.352173	138.940079	59.518253	918.698730	150.581436	116.919693	1070.893311	65.095520	91.401947
293	2.92000000	1166.963745	1320.736938	378.188416	1143.800049	1336.147583	45.260567	1074.177124	1389.376587	228.294373	1217.725220	1292.010620	203.452362	1101.723022	1005.499207	478.274872	1085.194946	1018.110535	-63.638950	1207.520447	776.031494	459.864578	1197.514954	797.442444	-71.091829	1210.487915	926.230286	323.199249	1155.001465	922.595825	26.524908	981.242615	931.506104	216.187485	1000.187927	1044.142578	206.577972	1262.035156	1035.199341	194.746796	1137.758789	589.269897	368.754425	1149.942993	440.747437	293.703064	1126.968872	288.706818	329.347412	1109.939453	53.191895	247.999390	1054.327026	43.072197	189.358109	1229.921021	46.905914	217.896881	1155.827515	605.900024	-21.439192	1211.910889	455.308258	41.497086	1115.651489	314.515961	-27.959150	1014.934814	130.858047	59.922443	954.434204	138.566315	117.554512	1111.711548	62.731529	90.760384
294	2.93000000	1179.423218	1321.288574	378.518005	1154.633789	1336.990967	45.377876	1086.218506	1389.822632	229.105179	1229.459106	1292.345215	203.450211	1116.278076	1006.177917	479.787598	1091.575195	1018.978394	-62.706909	1225.415649	778.374451	460.167221	1200.011902	796.367432	-70.059038	1221.283447	926.686646	324.243195	1167.443970	923.684204	28.016245	992.429138	931.973083	215.348663	1011.607056	1044.643433	206.949799	1273.503174	1035.948853	194.785660	1145.185181	589.749329	369.426056	1151.533569	440.873474	293.743530	1127.132568	288.954193	329.509247	1109.797607	53.159096	248.076218	1054.135498	43.181499	189.408203	1229.867920	46.833969	217.939362	1173.937012	607.563416	-21.010502	1232.403320	457.454681	42.951786	1142.362305	312.113556	-26.815075	1052.269043	122.622375	60.409840	991.212097	126.370377	118.185638	1152.988403	60.511600	90.327148
295	2.94000000	1191.859009	1321.530518	378.806366	1165.494995	1337.537964	45.462841	1098.247559	1389.968262	229.854950	1241.198242	1292.411499	203.409622	1130.818604	1006.567444	481.284637	1097.848877	1019.611572	-61.747597	1243.235474	780.448425	460.511765	1202.470337	795.174713	-69.044287	1231.989502	926.886902	325.403229	1180.064575	924.158386	29.475140	1003.629028	932.128845	214.364899	1022.988647	1044.836304	207.189819	1285.054688	1036.352173	194.812454	1152.582886	589.966553	369.999023	1153.083008	440.967865	293.742828	1127.283447	289.206024	329.626709	1109.676270	53.157902	248.116013	1053.980591	43.290085	189.422699	1229.831787	46.751862	217.949295	1191.672241	608.998779	-20.504646	1252.262085	459.269928	44.545845	1168.978027	309.406799	-25.503899	1090.317505	114.419342	61.008030	1029.012939	114.198372	118.870697	1194.662598	58.565659	90.095123
296	2.95000000	1204.269287	1321.446655	379.045868	1176.404175	1337.774292	45.509235	1110.259277	1389.808472	230.523499	1252.949463	1292.203125	203.334564	1145.363892	1006.656372	482.752411	1104.062012	1019.998169	-60.750141	1260.967224	782.226074	460.914078	1204.919739	793.840820	-68.057245	1242.641968	926.791565	326.645874	1192.801636	924.038574	30.847069	1014.857544	931.988831	213.311737	1034.346558	1044.723145	207.315811	1296.679932	1036.408325	194.826309	1159.891602	589.942139	370.441986	1154.667603	441.045227	293.689453	1127.502563	289.457092	329.701080	1109.576172	53.187481	248.112152	1053.887817	43.396576	189.414856	1229.811646	46.655888	217.924057	1208.918579	610.121826	-19.904593	1271.463379	460.696350	46.256348	1195.499512	306.416901	-24.041119	1129.032837	106.441551	61.740849	1067.793945	102.272224	119.657074	1236.655884	57.021183	90.090828
297	2.96000000	1216.651489	1321.029297	379.228668	1187.377563	1337.691772	45.515671	1122.248657	1389.344849	231.098709	1264.717285	1291.717285	203.230423	1159.930786	1006.440613	484.174835	1110.266357	1020.134460	-59.709015	1278.599731	783.688110	461.384094	1207.388794	792.348541	-67.104004	1253.279297	926.381775	327.929810	1205.596558	923.371643	32.093018	1026.130493	931.565857	212.255188	1045.698730	1044.307617	207.348938	1308.365112	1036.119751	194.825058	1167.023804	589.711609	370.739380	1156.343018	441.120270	293.578735	1127.852905	289.708344	329.733856	1109.496338	53.250519	248.059830	1053.871826	43.506519	189.391235	1229.807129	46.543907	217.865479	1225.600220	610.851685	-19.187597	1289.992432	461.678040	48.058323	1221.962402	303.170807	-22.454163	1168.346924	98.881935	62.631504	1107.473755	90.826492	120.584694	1278.868652	56.000046	90.368874
